<svg xmlns="http://www.w3.org/2000/svg" width="256" height="256" viewBox="0 0 256 256"><defs></defs><circle cx="128" cy="128" r="116" fill="#fcf5e4" stroke="#bb9850" stroke-width="3"/><circle cx="128" cy="128" r="104" fill="none" stroke="#e1d2ae" stroke-width="2"/><path d="M128 34 199 62v69c0 43-44 77-71 91-27-14-71-48-71-91V62Z" fill="#315b49" stroke="#b99245" stroke-width="4"/><path d="m82 71 21 14 25-28 25 28 21-14-8 33H90Z" fill="#f2d58e"/><path d="M91 120h23v-9h28v9h23v53H91Z" fill="#f4e5bd"/><path d="M91 131h74M106 142v14m44-14v14m-31 17v-22a9 9 0 0 1 18 0v22" fill="none" stroke="#315b49" stroke-width="5"/><path d="m128 187 6 8-6 8-6-8Z" fill="#f2d58e"/></svg>
